<?xml version="1.0" standalone="no"?>
<!DOCTYPE svg PUBLIC "-//W3C//DTD SVG 20010904//EN"
 "http://www.w3.org/TR/2001/REC-SVG-20010904/DTD/svg10.dtd">
<svg version="1.0" xmlns="http://www.w3.org/2000/svg"
 width="584.000000pt" height="584.000000pt" viewBox="0 0 584.000000 584.000000"
 preserveAspectRatio="xMidYMid meet">
<metadata>
Created by potrace 1.14, written by Peter Selinger 2001-2017
</metadata>
<g transform="translate(0.000000,584.000000) scale(0.100000,-0.100000)"
fill="#000000" stroke="none">
<path d="M2378 5475 c-1 -1 -30 -5 -63 -9 -101 -10 -149 -16 -175 -21 -14 -3
-40 -8 -59 -11 -51 -9 -59 -10 -151 -33 -107 -27 -272 -81 -284 -92 -6 -5 -16
-9 -24 -9 -7 0 -61 -22 -119 -50 -58 -27 -107 -50 -108 -50 -16 0 -326 -193
-361 -225 -7 -5 -24 -19 -39 -29 -14 -11 -36 -28 -48 -39 -12 -10 -44 -37 -71
-60 -203 -172 -439 -466 -560 -697 -16 -30 -42 -79 -58 -107 -16 -29 -25 -53
-21 -53 4 0 3 -4 -2 -8 -12 -8 -89 -199 -101 -247 -4 -16 -10 -34 -14 -40 -4
-5 -11 -26 -15 -45 -4 -19 -10 -39 -13 -45 -4 -5 -8 -19 -9 -30 -2 -15 -27
-130 -38 -175 -1 -3 -5 -27 -10 -55 -4 -27 -9 -59 -11 -70 -30 -162 -25 -592
10 -770 3 -16 9 -50 12 -75 3 -25 10 -53 15 -62 6 -10 8 -18 5 -18 -3 0 0 -15
5 -32 6 -18 12 -44 15 -58 11 -56 75 -243 121 -350 16 -37 101 -208 124 -250
38 -68 172 -269 199 -298 11 -12 18 -22 16 -22 -3 0 9 -15 27 -34 17 -19 39
-44 48 -55 54 -71 244 -252 370 -354 138 -111 397 -261 584 -340 137 -57 390
-133 505 -151 19 -3 46 -8 60 -10 133 -24 213 -30 415 -30 201 -1 302 6 435
30 19 3 44 8 55 10 195 34 533 147 645 214 8 5 31 17 50 26 19 10 77 43 128
73 51 31 102 61 113 67 11 6 30 20 42 30 12 11 38 29 57 41 19 12 44 30 55 40
11 10 42 36 69 57 85 69 222 204 298 294 40 48 75 89 78 92 19 18 110 150 110
159 0 6 5 11 10 11 6 0 10 6 10 14 0 8 4 16 8 18 18 7 172 288 172 314 0 7 3
14 8 16 4 2 24 48 45 103 65 170 50 153 162 189 122 39 160 55 295 123 120 61
144 79 249 183 94 92 103 104 142 182 60 119 49 228 -31 302 -22 20 -40 34
-40 30 0 -4 -8 -1 -17 7 -70 58 -323 72 -523 29 -61 -12 -59 -13 -55 10 2 11
1 20 -3 20 -4 0 -7 28 -8 63 0 64 -11 177 -19 199 -2 7 -7 32 -9 56 -3 23 -7
45 -9 50 -3 4 -8 24 -11 44 -3 21 -11 57 -17 80 -6 24 -15 63 -21 88 l-11 45
79 80 c145 148 324 360 324 384 0 5 3 11 8 13 12 5 132 203 123 203 -1 0 2 12
8 28 6 15 15 38 20 51 11 26 24 100 24 131 0 115 -66 208 -193 269 -61 29 -72
31 -175 30 -93 0 -123 -5 -190 -28 -146 -50 -295 -134 -436 -243 -54 -42 -79
-53 -79 -33 0 10 -255 269 -300 305 -14 11 -48 38 -75 61 -28 23 -79 61 -115
85 -36 24 -67 46 -70 49 -3 4 -21 15 -40 26 -19 10 -42 24 -50 30 -54 40 -309
164 -410 199 -3 1 -12 4 -20 8 -60 23 -174 58 -275 83 -11 3 -24 6 -30 8 -5 2
-28 6 -50 11 -22 4 -49 10 -60 12 -11 2 -31 6 -45 8 -47 6 -115 16 -150 21
-38 6 -456 15 -462 9z"/>
</g>
</svg>
