<svg width="322" height="255" viewBox="0 0 322 255" fill="none" xmlns="http://www.w3.org/2000/svg">
<path d="M254.067 125.275V126.851C254.056 148.781 248.364 170.335 237.539 189.415C226.713 208.494 211.126 224.447 192.29 235.72C173.455 246.993 152.023 253.198 130.077 253.737C108.131 254.276 86.4195 249.127 67.0557 238.79C107.481 195.681 134.631 136.715 138.514 129.407C138.966 128.563 139.363 127.699 139.734 126.759C141.619 122.053 143.835 117.484 146.361 113.087C148.165 110.109 150.991 107.888 154.31 106.841C193.983 94.5826 211.512 70.6547 214.084 66.8531L214.414 66.35C216.137 63.702 218.216 61.0541 220.442 58.1724C225.28 62.4467 229.783 67.0869 233.915 72.0422C238.906 78.0242 243.343 84.4483 247.165 91.2333L247.231 91.34C247.668 92.1227 248.095 92.9155 248.491 93.7236C241.864 99.6141 237.361 103.121 237.361 103.121C242.423 106.836 247.739 110.196 253.264 113.179L254.59 113.865C254.595 113.896 254.595 113.926 254.59 113.957C254.961 117.616 255.164 121.326 255.2 125.087L254.072 125.27L254.067 125.275Z" fill="#609FD2"/>
<path fill-rule="evenodd" clip-rule="evenodd" d="M301.73 161.223C294.868 165.695 283.946 170.488 270.885 174.061C262.275 176.409 253.472 177.974 244.583 178.736C244.583 178.736 244.436 178.757 244.161 178.797C243.953 178.823 243.668 178.869 243.328 178.914C243.125 178.945 242.947 179.072 242.865 179.26C241.265 182.807 239.496 186.294 237.565 189.699C226.744 208.783 211.157 224.742 192.316 236.02C173.481 247.293 152.043 253.503 130.093 254.042C108.401 254.576 86.9891 249.315 67.8031 239.212C67.4524 239.029 67.3711 238.556 67.6456 238.266C103.634 199.656 128.949 148.888 136.593 133.524C137.472 131.755 138.113 130.459 138.514 129.707C138.961 128.863 139.363 127.999 139.734 127.059C141.614 122.353 143.83 117.784 146.356 113.387C148.161 110.409 150.986 108.193 154.305 107.141C193.978 94.8824 211.507 70.9546 214.079 67.153L214.409 66.6498C215.964 64.2611 217.814 61.8724 219.797 59.3058C220.01 59.0313 220.223 58.7518 220.437 58.4723C221.55 57.0289 222.719 55.5753 223.898 54.1065L224.178 53.7457C225.301 52.3429 226.429 50.93 227.527 49.512L228.269 48.5566C228.935 47.7281 229.58 46.8946 230.221 46.056C234.469 40.4654 239.46 35.1645 244.771 30.4735C244.771 30.4735 244.776 30.4684 244.787 30.4633C244.792 30.4531 244.802 30.4481 244.812 30.4379C244.848 30.4074 244.909 30.3515 244.99 30.2803C245.041 30.2397 245.097 30.1889 245.163 30.133C247.592 28.0492 260.959 16.9696 275.459 12.614C283.667 10.1491 292.236 9.83904 299.397 14.5453C301.176 15.7143 302.868 17.1932 304.443 19.028C304.443 19.028 304.454 19.0381 304.459 19.0432C320.285 37.4821 275.789 79.2897 272.831 82.0342C272.816 82.0545 272.796 82.0697 272.78 82.085C272.765 82.0951 272.75 82.1104 272.735 82.1256C272.709 82.146 272.694 82.1612 272.684 82.1714C265.889 88.875 258.89 94.613 251.988 98.4451L250.901 99.0296C250.875 99.0347 250.85 99.0347 250.824 99.0296C248.746 100.188 246.571 101.139 244.319 101.866C242.245 102.542 240.116 103.024 237.951 103.309C237.636 103.35 237.407 103.629 237.427 103.944L238.276 115.954C238.591 118.16 242.068 119.451 245.529 120.742C249.076 122.063 252.603 123.369 252.649 125.646L253.34 125.565L254.016 125.483C254.082 126.109 254.082 126.622 254.082 127.115C254.082 132.111 253.787 137.092 253.203 142.026C253.178 142.23 253.259 142.428 253.422 142.555C253.793 142.85 254.347 142.626 254.402 142.154C254.936 137.584 255.226 132.99 255.261 128.385V125.992C255.261 125.687 255.49 125.427 255.795 125.392L256.588 125.295L271.434 123.583C271.474 123.583 271.51 123.572 271.545 123.557C272.948 123.11 302.065 114.012 315.67 123.572C329.606 133.366 315.869 151.988 301.73 161.212V161.223Z" fill="url(#paint0_linear_60_119)"/>
<path d="M299.966 137.64C295.27 141.483 290.065 144.664 284.5 147.089C274.579 151.485 263.927 153.99 253.086 154.489L251.033 154.58C202.669 156.379 167.397 131.918 158.915 125.458C157.166 124.167 155.947 122.287 155.484 120.162C154.635 116.005 157.39 113.758 160.876 111.822C165.13 109.454 167.194 109.093 175.976 105.642C176.733 105.342 177.506 105.073 178.279 104.808C197.719 98.2368 219.41 83.3454 233.961 72.1134C235.933 70.5785 237.778 69.1199 239.46 67.7578C245.742 62.6754 249.874 58.9297 250.682 58.0403C253.03 55.3924 263.683 45.4512 272.623 41.1922C274.874 40.1198 277.242 39.083 279.824 38.8848C284.434 38.6815 290.192 40.806 290.004 45.5478C289.923 46.8082 289.501 48.028 288.785 49.0699C277.202 66.7261 260.628 82.9947 249.472 92.9714L248.558 93.7897C241.93 99.6802 237.427 103.187 237.427 103.187C242.489 106.902 247.805 110.262 253.33 113.245L254.656 113.931C271.789 122.957 284.693 125.961 294.563 126.464C305.084 126.983 303.955 134.261 299.956 137.62L299.966 137.64Z" fill="url(#paint1_radial_60_119)"/>
<path d="M168.906 122.947C167.341 121.717 167.585 119.39 170.101 118.897C174.604 118.038 183.061 115.019 190.217 111.974C203.304 104.712 227.582 106.145 255.022 119.573C255.79 119.954 256.532 120.391 257.314 120.752C267.916 125.57 283.219 128.401 284.688 134.81C284.993 136.131 284.342 137.656 282.264 138.779C271.57 144.497 249.493 148.878 219.817 142.616C204.183 139.323 179.549 131.354 168.906 122.947Z" fill="url(#paint2_linear_60_119)"/>
<path d="M227.583 49.263C226.485 50.681 225.356 52.0939 224.228 53.4966L223.949 53.8524C222.77 55.3212 221.601 56.7798 220.488 58.2182C218.261 61.0389 216.183 63.7884 214.46 66.3957L214.13 66.8988C211.558 70.6954 194.029 94.6944 154.356 106.887C151.037 107.939 148.211 110.155 146.407 113.133C143.881 117.529 141.665 122.099 139.779 126.805C139.408 127.694 139.012 128.553 138.56 129.453C134.702 136.761 107.527 195.727 67.1015 238.836C50.4059 229.906 35.9161 217.363 24.6942 202.12C13.4774 186.878 5.80809 169.324 2.25551 150.738C-1.29707 132.151 -0.646528 113.011 4.1614 94.7147C8.96932 76.413 17.8076 59.4176 30.0408 44.9735C42.269 30.5243 57.5771 18.9924 74.842 11.2164C92.1068 3.44033 110.896 -0.381617 129.833 0.0300551C148.77 0.441727 167.372 5.07685 184.286 13.5949C201.2 22.113 215.99 34.3005 227.577 49.263H227.583Z" fill="url(#paint3_linear_60_119)"/>
<path d="M119.368 101.108C119.368 108.178 113.92 114.739 107.933 114.739C101.946 114.739 96.6045 108.666 96.6045 101.596C96.6045 94.5266 101.905 87.4723 107.933 87.4723C113.961 87.4723 119.368 94.0387 119.368 101.103V101.108Z" fill="#010101"/>
<defs>
<linearGradient id="paint0_linear_60_119" x1="321.479" y1="-5.00803" x2="76.6243" y2="280.08" gradientUnits="userSpaceOnUse">
<stop stop-color="#CEF3FF"/>
<stop offset="1" stop-color="#50B6E2"/>
</linearGradient>
<radialGradient id="paint1_radial_60_119" cx="0" cy="0" r="1" gradientUnits="userSpaceOnUse" gradientTransform="translate(229.077 96.7729) rotate(90) scale(80.4401 102.456)">
<stop stop-color="#001433"/>
<stop offset="1" stop-color="#0D36B7"/>
</radialGradient>
<linearGradient id="paint2_linear_60_119" x1="167.925" y1="120.98" x2="300.321" y2="133.559" gradientUnits="userSpaceOnUse">
<stop stop-color="#BD345F"/>
<stop offset="1" stop-color="#DB6895"/>
</linearGradient>
<linearGradient id="paint3_linear_60_119" x1="113.791" y1="0" x2="113.791" y2="238.836" gradientUnits="userSpaceOnUse">
<stop stop-color="#00D0C4"/>
<stop offset="1" stop-color="#056DAE"/>
</linearGradient>
</defs>
</svg>
