<svg width="73" height="64" viewBox="0 0 73 64" fill="none" xmlns="http://www.w3.org/2000/svg">
<g clip-path="url(#clip0_60_21)">
<path d="M32.0352 64C49.7278 64 64.0694 49.6733 64.0694 32C64.0694 14.3267 49.7267 0 32.0352 0C14.3438 0 0 14.3267 0 32C0 49.6733 14.3427 64 32.0352 64Z" fill="#EDEDED"/>
<path d="M58.7361 31.6689V32C58.7339 36.6093 57.5375 41.1395 55.2623 45.1495C52.987 49.1595 49.7109 52.5126 45.7521 54.8819C41.7934 57.2511 37.2888 58.5554 32.6763 58.6686C28.0638 58.7819 23.5005 57.6998 19.4307 55.5271C27.9271 46.4666 33.6334 34.0734 34.4495 32.5373C34.5446 32.36 34.6279 32.1784 34.7059 31.9808C35.1022 30.9916 35.5679 30.0313 36.0988 29.1073C36.478 28.4814 37.0719 28.0146 37.7695 27.7945C46.1078 25.218 49.792 20.1889 50.3326 19.3899L50.402 19.2842C50.7641 18.7276 51.201 18.1711 51.6689 17.5654C52.6858 18.4638 53.6322 19.4391 54.5007 20.4806C55.5496 21.7378 56.4822 23.088 57.2855 24.5141L57.2993 24.5365C57.3912 24.701 57.4809 24.8676 57.5643 25.0375C56.1713 26.2755 55.2249 27.0126 55.2249 27.0126C56.2888 27.7934 57.4062 28.4995 58.5673 29.1265L58.8461 29.2708C58.8472 29.2772 58.8472 29.2836 58.8461 29.29C58.9241 30.0591 58.9668 30.8389 58.9743 31.6293L58.7371 31.6678L58.7361 31.6689Z" fill="#609FD2"/>
<path fill-rule="evenodd" clip-rule="evenodd" d="M68.7536 39.2242C67.3115 40.1642 65.0159 41.1715 62.2707 41.9225C60.4611 42.416 58.611 42.745 56.7428 42.9052C56.7428 42.9052 56.7118 42.9095 56.6541 42.918C56.6103 42.9234 56.5505 42.933 56.4789 42.9426C56.4362 42.949 56.3988 42.9757 56.3817 43.0153C56.0452 43.7609 55.6735 44.4936 55.2676 45.2093C52.9934 49.2204 49.7172 52.5746 45.7574 54.9449C41.7987 57.3141 37.293 58.6195 32.6795 58.7327C28.1204 58.8449 23.6201 57.7393 19.5876 55.6157C19.5139 55.5773 19.4968 55.4779 19.5545 55.417C27.1184 47.3019 32.4391 36.6317 34.0457 33.4025C34.2305 33.0308 34.3651 32.7584 34.4495 32.6003C34.5435 32.423 34.6279 32.2414 34.7058 32.0438C35.1011 31.0546 35.5668 30.0943 36.0977 29.1703C36.4769 28.5444 37.0708 28.0786 37.7684 27.8575C46.1067 25.281 49.7909 20.252 50.3314 19.4529L50.4009 19.3472C50.7277 18.8451 51.1166 18.3431 51.5331 17.8036C51.578 17.746 51.6229 17.6872 51.6677 17.6285C51.9017 17.3251 52.1474 17.0196 52.3952 16.7109L52.4539 16.635C52.69 16.3402 52.9272 16.0433 53.1579 15.7452L53.3138 15.5444C53.4538 15.3703 53.5894 15.1951 53.724 15.0189C54.617 13.8438 55.666 12.7297 56.7823 11.7438C56.7823 11.7438 56.7833 11.7427 56.7855 11.7416C56.7865 11.7395 56.7887 11.7384 56.7908 11.7363C56.7983 11.7299 56.8111 11.7181 56.8282 11.7032C56.8389 11.6946 56.8506 11.6839 56.8645 11.6722C57.3751 11.2342 60.1845 8.90556 63.2321 7.99012C64.9572 7.47204 66.7582 7.40688 68.2633 8.39603C68.6371 8.64172 68.9928 8.95256 69.324 9.33818C69.324 9.33818 69.3261 9.34032 69.3272 9.34139C72.6536 13.2168 63.3015 22.0038 62.6798 22.5806C62.6766 22.5849 62.6723 22.5881 62.6691 22.5913C62.6659 22.5934 62.6627 22.5967 62.6595 22.5999C62.6542 22.6041 62.651 22.6073 62.6488 22.6095C61.2206 24.0184 59.7497 25.2244 58.2991 26.0298L58.0705 26.1527C58.0652 26.1538 58.0598 26.1538 58.0545 26.1527C57.6176 26.3962 57.1604 26.596 56.6872 26.7487C56.2514 26.8908 55.8038 26.9923 55.3488 27.0521C55.2825 27.0607 55.2345 27.1194 55.2387 27.1856L55.4171 29.7098C55.4833 30.1734 56.214 30.4447 56.9414 30.716C57.687 30.9938 58.4284 31.2683 58.438 31.7468L58.5833 31.7297L58.7253 31.7127C58.7392 31.844 58.7392 31.9519 58.7392 32.0555C58.7392 33.1056 58.6773 34.1524 58.5544 35.1896C58.5491 35.2324 58.5662 35.274 58.6003 35.3007C58.6783 35.3627 58.7948 35.3157 58.8065 35.2163C58.9187 34.256 58.9796 33.2904 58.987 32.3226V31.8195C58.987 31.7554 59.0351 31.7009 59.0992 31.6934L59.2658 31.6731L62.386 31.3131C62.3946 31.3131 62.4021 31.311 62.4095 31.3078C62.7044 31.2138 68.8241 29.3017 71.6836 31.311C74.6126 33.3694 71.7253 37.2833 68.7536 39.2221V39.2242Z" fill="url(#paint0_linear_60_21)"/>
<path d="M68.3827 34.2678C67.3957 35.0753 66.3018 35.744 65.1322 36.2536C63.047 37.1776 60.8081 37.7042 58.5296 37.8089L58.0981 37.8281C47.9331 38.2062 40.5198 33.065 38.737 31.7073C38.3695 31.436 38.1132 31.0408 38.016 30.5942C37.8376 29.7205 38.4165 29.2483 39.1493 28.8413C40.0434 28.3436 40.4771 28.2677 42.3229 27.5424C42.4821 27.4794 42.6445 27.4228 42.8068 27.3672C46.8927 25.986 51.4518 22.8562 54.51 20.4955C54.9245 20.1729 55.3122 19.8663 55.6658 19.5801C56.9861 18.5119 57.8545 17.7246 58.0244 17.5377C58.5179 16.9811 60.7568 14.8917 62.6358 13.9966C63.109 13.7712 63.6068 13.5533 64.1494 13.5116C65.1183 13.4689 66.3286 13.9154 66.289 14.912C66.2719 15.1769 66.1833 15.4333 66.0327 15.6523C63.5982 19.3632 60.1148 22.7825 57.7702 24.8794L57.5779 25.0514C56.1849 26.2894 55.2385 27.0265 55.2385 27.0265C56.3024 27.8073 57.4198 28.5134 58.5809 29.1404L58.8597 29.2846C62.4606 31.1818 65.1728 31.8131 67.2472 31.9188C69.4584 32.0278 69.2212 33.5574 68.3806 34.2635L68.3827 34.2678Z" fill="url(#paint1_radial_60_21)"/>
<path d="M40.8371 31.1796C40.5081 30.9211 40.5593 30.4319 41.0881 30.3283C42.0345 30.1477 43.812 29.5132 45.316 28.8734C48.0666 27.3469 53.1694 27.6482 58.9366 30.4703C59.0979 30.5505 59.2539 30.6423 59.4184 30.7182C61.6466 31.7308 64.863 32.3258 65.1717 33.6728C65.2358 33.9505 65.099 34.271 64.6622 34.5071C62.4147 35.7088 57.7744 36.6296 51.5372 35.3136C48.2514 34.6214 43.0739 32.9464 40.8371 31.1796Z" fill="url(#paint2_linear_60_21)"/>
<path d="M53.1695 15.6929C52.9388 15.9909 52.7016 16.2879 52.4645 16.5827L52.4058 16.6575C52.1579 16.9662 51.9123 17.2728 51.6783 17.5751C51.2104 18.1679 50.7736 18.7458 50.4114 19.2938L50.342 19.3995C49.8015 20.1975 46.1173 25.2415 37.7789 27.8041C37.0814 28.0252 36.4875 28.491 36.1083 29.1169C35.5774 30.0409 35.1116 31.0012 34.7153 31.9904C34.6374 32.1773 34.554 32.3578 34.459 32.5469C33.6482 34.083 27.9366 46.4762 19.4401 55.5367C15.9311 53.6598 12.8856 51.0235 10.5271 47.82C8.16955 44.6165 6.55764 40.9269 5.81097 37.0205C5.0643 33.1141 5.20103 29.0913 6.21154 25.2458C7.22206 21.3992 9.07965 17.8272 11.6508 14.7913C14.2209 11.7544 17.4383 9.33071 21.067 7.69636C24.6956 6.06202 28.6448 5.25874 32.6249 5.34526C36.605 5.43178 40.5146 6.40598 44.0695 8.19628C47.6245 9.98658 50.733 12.5481 53.1684 15.6929H53.1695Z" fill="url(#paint3_linear_60_21)"/>
<path d="M30.4256 26.5896C30.4256 28.0754 29.2805 29.4545 28.0221 29.4545C26.7638 29.4545 25.6411 28.178 25.6411 26.6921C25.6411 25.2063 26.7552 23.7236 28.0221 23.7236C29.289 23.7236 30.4256 25.1037 30.4256 26.5885V26.5896Z" fill="#010101"/>
</g>
<defs>
<linearGradient id="paint0_linear_60_21" x1="72.9044" y1="4.28637" x2="21.4416" y2="64.2053" gradientUnits="userSpaceOnUse">
<stop stop-color="#CEF3FF"/>
<stop offset="1" stop-color="#50B6E2"/>
</linearGradient>
<radialGradient id="paint1_radial_60_21" cx="0" cy="0" r="1" gradientUnits="userSpaceOnUse" gradientTransform="translate(53.4836 25.6784) rotate(90) scale(16.9067 21.5338)">
<stop stop-color="#001433"/>
<stop offset="1" stop-color="#0D36B7"/>
</radialGradient>
<linearGradient id="paint2_linear_60_21" x1="40.6309" y1="30.7662" x2="68.4575" y2="33.41" gradientUnits="userSpaceOnUse">
<stop stop-color="#BD345F"/>
<stop offset="1" stop-color="#DB6895"/>
</linearGradient>
<linearGradient id="paint3_linear_60_21" x1="29.2532" y1="5.33894" x2="29.2532" y2="55.5367" gradientUnits="userSpaceOnUse">
<stop stop-color="#00D0C4"/>
<stop offset="1" stop-color="#056DAE"/>
</linearGradient>
<clipPath id="clip0_60_21">
<rect width="72.9045" height="64" fill="white"/>
</clipPath>
</defs>
</svg>
