<svg width="113" height="40" viewBox="0 0 113 40" fill="none" xmlns="http://www.w3.org/2000/svg">
<g id="Group 15">
<g id="Group 13">
<g id="Middel 1 1" clip-path="url(#clip0_39_7)">
<g id="Laag 1">
<path id="Vector" d="M20.022 40C31.0799 40 40.0434 31.0458 40.0434 20C40.0434 8.95417 31.0792 0 20.022 0C8.96485 0 0 8.95417 0 20C0 31.0458 8.96418 40 20.022 40Z" fill="#EDEDED"/>
<path id="Vector_2" d="M36.7099 19.793V20C36.7086 22.8808 35.9608 25.7122 34.5388 28.2185C33.1168 30.7247 31.0692 32.8204 28.595 34.3012C26.1207 35.782 23.3054 36.5971 20.4226 36.6679C17.5398 36.7387 14.6877 36.0624 12.144 34.7044C17.4543 29.0416 21.0208 21.2959 21.5308 20.3358C21.5902 20.225 21.6423 20.1115 21.6911 19.988C21.9387 19.3698 22.2298 18.7696 22.5616 18.1921C22.7986 17.8009 23.1698 17.5091 23.6058 17.3716C28.8173 15.7613 31.1199 12.6181 31.4577 12.1187L31.5011 12.0526C31.7274 11.7048 32.0005 11.357 32.2929 10.9784C32.9285 11.5399 33.52 12.1494 34.0628 12.8004C34.7184 13.5861 35.3012 14.43 35.8033 15.3213L35.812 15.3353C35.8694 15.4381 35.9255 15.5423 35.9775 15.6484C35.107 16.4222 34.5154 16.8829 34.5154 16.8829C35.1804 17.3709 35.8787 17.8122 36.6044 18.2041L36.7787 18.2942C36.7794 18.2982 36.7794 18.3022 36.7787 18.3062C36.8274 18.7869 36.8541 19.2743 36.8588 19.7683L36.7106 19.7924L36.7099 19.793Z" fill="#609FD2"/>
<path id="Vector_3" fill-rule="evenodd" clip-rule="evenodd" d="M42.9709 24.5151C42.0696 25.1026 40.6349 25.7322 38.9191 26.2016C37.7882 26.51 36.6318 26.7156 35.4642 26.8158C35.4642 26.8158 35.4448 26.8184 35.4087 26.8238C35.3814 26.8271 35.344 26.8331 35.2993 26.8391C35.2725 26.8431 35.2492 26.8598 35.2385 26.8845C35.0282 27.3505 34.7959 27.8085 34.5422 28.2558C33.1208 30.7628 31.0732 32.8591 28.5983 34.3406C26.1241 35.8213 23.3081 36.6372 20.4246 36.7079C17.5752 36.778 14.7625 36.0871 12.2422 34.7598C12.1961 34.7358 12.1855 34.6737 12.2215 34.6356C16.949 29.5637 20.2744 22.8948 21.2785 20.8766C21.394 20.6443 21.4781 20.474 21.5309 20.3752C21.5896 20.2644 21.6423 20.1509 21.6911 20.0274C21.9381 19.4092 22.2292 18.809 22.561 18.2315C22.798 17.8402 23.1692 17.5492 23.6052 17.411C28.8166 15.8006 31.1193 12.6575 31.4571 12.1581L31.5005 12.092C31.7048 11.7782 31.9478 11.4644 32.2082 11.1273C32.2362 11.0912 32.2642 11.0545 32.2923 11.0178C32.4385 10.8282 32.592 10.6372 32.7469 10.4443L32.7836 10.3969C32.9312 10.2126 33.0794 10.027 33.2236 9.84077L33.3211 9.71526C33.4085 9.60644 33.4933 9.49695 33.5775 9.38679C34.1356 8.6524 34.7912 7.95607 35.4889 7.33985C35.4889 7.33985 35.4895 7.33919 35.4909 7.33852C35.4915 7.33718 35.4929 7.33652 35.4942 7.33518C35.4989 7.33117 35.5069 7.32383 35.5176 7.31448C35.5242 7.30914 35.5316 7.30247 35.5403 7.29512C35.8594 7.0214 37.6152 5.56598 39.52 4.99382C40.5982 4.67003 41.7238 4.6293 42.6645 5.24752C42.8981 5.40107 43.1205 5.59535 43.3274 5.83637C43.3274 5.83637 43.3288 5.8377 43.3294 5.83837C45.4084 8.26051 39.5634 13.7524 39.1748 14.1129C39.1728 14.1156 39.1701 14.1176 39.1681 14.1196C39.1661 14.1209 39.1641 14.1229 39.1621 14.1249C39.1588 14.1276 39.1568 14.1296 39.1554 14.1309C38.2628 15.0115 37.3435 15.7653 36.4369 16.2687L36.294 16.3454C36.2907 16.3461 36.2873 16.3461 36.284 16.3454C36.0109 16.4976 35.7252 16.6225 35.4294 16.718C35.157 16.8068 34.8773 16.8702 34.5929 16.9076C34.5515 16.9129 34.5215 16.9496 34.5241 16.991L34.6356 18.5686C34.677 18.8584 35.1337 19.0279 35.5883 19.1975C36.0543 19.3711 36.5177 19.5427 36.5237 19.8418L36.6145 19.8311L36.7033 19.8204C36.7119 19.9025 36.7119 19.97 36.7119 20.0347C36.7119 20.691 36.6732 21.3453 36.5964 21.9935C36.5931 22.0202 36.6038 22.0463 36.6252 22.063C36.6739 22.1017 36.7467 22.0723 36.754 22.0102C36.8241 21.41 36.8622 20.8065 36.8668 20.2016V19.8872C36.8668 19.8471 36.8969 19.8131 36.9369 19.8084L37.0411 19.7957L38.9912 19.5707C38.9966 19.5707 39.0012 19.5694 39.0059 19.5674C39.1902 19.5086 43.015 18.3136 44.8022 19.5694C46.6328 20.8559 44.8282 23.3021 42.9709 24.5138V24.5151Z" fill="url(#paint0_linear_39_7)"/>
<path id="Vector_4" d="M42.7393 21.4174C42.1224 21.9221 41.4388 22.34 40.7077 22.6585C39.4045 23.236 38.0052 23.5651 36.5811 23.6305L36.3114 23.6426C29.9583 23.8789 25.325 20.6656 24.2108 19.8171C23.9811 19.6475 23.8209 19.4005 23.7601 19.1214C23.6486 18.5753 24.0105 18.2802 24.4685 18.0258C25.0273 17.7147 25.2983 17.6673 26.452 17.214C26.5514 17.1746 26.6529 17.1392 26.7544 17.1045C29.3081 16.2413 32.1575 14.2851 34.0689 12.8097C34.3279 12.6081 34.5703 12.4165 34.7912 12.2375C35.6164 11.5699 36.1592 11.0779 36.2654 10.961C36.5738 10.6132 37.9731 9.30734 39.1475 8.74787C39.4432 8.607 39.7544 8.47081 40.0935 8.44477C40.699 8.41806 41.4555 8.69713 41.4308 9.32002C41.4201 9.4856 41.3647 9.64582 41.2705 9.78269C39.749 12.102 37.5719 14.2391 36.1065 15.5496L35.9863 15.6571C35.1157 16.4309 34.5242 16.8915 34.5242 16.8915C35.1892 17.3796 35.8875 17.8209 36.6132 18.2128L36.7874 18.3029C39.038 19.4886 40.7331 19.8832 42.0296 19.9493C43.4116 20.0174 43.2634 20.9734 42.738 21.4147L42.7393 21.4174Z" fill="url(#paint1_radial_39_7)"/>
<path id="Vector_5" d="M25.5232 19.4873C25.3175 19.3257 25.3496 19.0199 25.6801 18.9552C26.2716 18.8423 27.3825 18.4458 28.3225 18.0459C30.0416 17.0918 33.2309 17.2801 36.8354 19.044C36.9362 19.094 37.0337 19.1515 37.1365 19.1989C38.5291 19.8318 40.5394 20.2036 40.7323 21.0455C40.7724 21.2191 40.6869 21.4194 40.4138 21.5669C39.0092 22.318 36.109 22.8935 32.2107 22.071C30.1571 21.6383 26.9212 20.5915 25.5232 19.4873Z" fill="url(#paint2_linear_39_7)"/>
<path id="Vector_6" d="M33.2311 9.80806C33.0869 9.99432 32.9386 10.1799 32.7904 10.3642L32.7537 10.4109C32.5988 10.6039 32.4453 10.7955 32.2991 10.9844C32.0066 11.3549 31.7336 11.7161 31.5073 12.0586L31.4639 12.1247C31.126 12.6234 28.8234 15.7759 23.6119 17.3776C23.176 17.5158 22.8048 17.8069 22.5678 18.1981C22.236 18.7756 21.9449 19.3758 21.6972 19.994C21.6485 20.1108 21.5964 20.2237 21.537 20.3418C21.0302 21.3019 17.4605 29.0476 12.1502 34.7104C9.95704 33.5374 8.05365 31.8897 6.57954 29.8875C5.10609 27.8853 4.09865 25.5793 3.63198 23.1378C3.16531 20.6963 3.25077 18.1821 3.88234 15.7786C4.51391 13.3745 5.67491 11.142 7.28188 9.24458C8.88818 7.34653 10.8991 5.83169 13.167 4.81023C15.4349 3.78876 17.9031 3.28671 20.3907 3.34079C22.8782 3.39486 25.3217 4.00374 27.5436 5.12267C29.7654 6.24161 31.7082 7.84257 33.2304 9.80806H33.2311Z" fill="url(#paint3_linear_39_7)"/>
<path id="Vector_7" d="M19.0159 16.6185C19.0159 17.5472 18.3002 18.4091 17.5138 18.4091C16.7273 18.4091 16.0256 17.6112 16.0256 16.6826C16.0256 15.7539 16.722 14.8273 17.5138 14.8273C18.3056 14.8273 19.0159 15.6898 19.0159 16.6178V16.6185Z" fill="#010101"/>
</g>
</g>
</g>
<g id="Robin">
<path d="M66.1162 13.8203C66.1162 12.2656 65.0889 11.4883 63.0342 11.4883C61.7451 11.4883 60.4404 11.8789 59.1201 12.6602C58.7373 12.8867 58.4365 13.0977 58.2178 13.293C58.0068 13.4805 57.8037 13.5742 57.6084 13.5742C57.4131 13.5742 57.2256 13.5273 57.0459 13.4336C56.8662 13.332 56.7061 13.207 56.5654 13.0586C56.0498 12.4883 56.1045 11.9375 56.7295 11.4062C57.667 10.6016 59.2217 10.082 61.3936 9.84766C61.8311 9.80078 62.3857 9.77734 63.0576 9.77734C63.7295 9.77734 64.4365 9.89844 65.1787 10.1406C65.9287 10.3828 66.5576 10.7109 67.0654 11.125C68.0811 11.9609 68.5889 13.0273 68.5889 14.3242C68.5889 15.8633 67.8857 17.2656 66.4795 18.5312C65.2607 19.6406 63.8193 20.4336 62.1553 20.9102C62.6084 21.2852 63.0342 21.8242 63.4326 22.5273L64.3701 24.2031C65.1904 25.7266 65.9248 26.5547 66.5732 26.6875C66.7998 26.7266 67.0342 26.7188 67.2764 26.6641C67.5186 26.6094 67.6748 26.5859 67.7451 26.5938C67.8232 26.5938 67.874 26.6562 67.8975 26.7812C67.9287 26.9062 67.8975 27.0625 67.8037 27.25C67.71 27.4375 67.5576 27.6133 67.3467 27.7773C66.8545 28.168 66.3154 28.3398 65.7295 28.293C65.1436 28.2539 64.667 28.1367 64.2998 27.9414C63.9404 27.7383 63.6162 27.4844 63.3271 27.1797C63.0459 26.875 62.792 26.5352 62.5654 26.1602C62.3467 25.7852 62.1436 25.4023 61.9561 25.0117L61.4287 23.8633C61.2646 23.4883 61.1123 23.168 60.9717 22.9023C60.8311 22.6289 60.71 22.3828 60.6084 22.1641C60.5068 21.9375 60.3936 21.7344 60.2686 21.5547C60.0029 21.1484 59.6631 20.8906 59.249 20.7812C57.6084 25 55.9404 27.4062 54.2451 28C54.1045 28.0547 53.96 28.082 53.8115 28.082C53.6709 28.082 53.542 28.0547 53.4248 28C53.3076 27.9531 53.21 27.8906 53.1318 27.8125C52.9678 27.6641 52.8857 27.5 52.8857 27.3203C52.8857 27.1406 52.9443 27.0078 53.0615 26.9219C54.2334 26.0703 55.5342 23.5859 56.9639 19.4688L57.667 17.4883C58.4717 15.207 59.1514 13.8008 59.7061 13.2695C59.9014 13.1211 60.1045 13.0469 60.3154 13.0469C60.5264 13.0469 60.71 13.082 60.8662 13.1523C61.0225 13.2148 61.1592 13.2969 61.2764 13.3984C61.542 13.6328 61.6748 13.8711 61.6748 14.1133C61.6748 14.3555 61.6201 14.5742 61.5107 14.7695C61.4092 14.957 61.292 15.2227 61.1592 15.5664C60.7764 16.5664 60.4795 17.3672 60.2686 17.9688L59.6709 19.6562C61.335 19.4375 62.8076 18.7852 64.0889 17.6992C65.4404 16.5586 66.1162 15.2656 66.1162 13.8203Z" fill="white"/>
<path d="M70.4521 27.2031C70.124 26.8906 69.8662 26.4961 69.6787 26.0195C69.4912 25.5352 69.3936 24.9648 69.3857 24.3086C69.3779 23.6523 69.4561 22.9883 69.6201 22.3164C69.792 21.6445 70.0303 20.9961 70.335 20.3711C70.6475 19.7461 71.0186 19.1602 71.4482 18.6133C71.8857 18.0664 72.3662 17.5898 72.8896 17.1836C74.0303 16.3086 75.2139 15.8711 76.4404 15.8711C78.0498 15.8711 79.1396 16.5781 79.71 17.9922C80.1162 19.0156 80.1396 20.2539 79.7803 21.707C79.4521 23.043 78.8506 24.2695 77.9756 25.3867C77.1084 26.5039 76.085 27.2969 74.9053 27.7656C74.3115 28 73.7256 28.1172 73.1475 28.1172C72.5771 28.1172 72.0654 28.043 71.6123 27.8945C71.167 27.7461 70.7803 27.5156 70.4521 27.2031ZM72.6904 21.5195C72.4561 22.0977 72.2686 22.6914 72.1279 23.3008C71.9951 23.9102 71.9326 24.4883 71.9404 25.0352C71.9482 25.5742 72.0303 26 72.1865 26.3125C72.3506 26.6172 72.6123 26.7695 72.9717 26.7695C73.3311 26.7695 73.6826 26.6484 74.0264 26.4062C74.3779 26.1562 74.7178 25.8281 75.0459 25.4219C75.374 25.0156 75.6826 24.5469 75.9717 24.0156C76.2607 23.4844 76.5146 22.9297 76.7334 22.3516C77.21 21.0938 77.4404 19.9766 77.4248 19C77.4248 18.1406 77.249 17.5938 76.8975 17.3594C76.7568 17.2656 76.5576 17.2188 76.2998 17.2188C76.0498 17.2188 75.7607 17.3359 75.4326 17.5703C75.1045 17.7969 74.7764 18.1055 74.4482 18.4961C74.1201 18.8867 73.8037 19.3438 73.499 19.8672C73.1943 20.3906 72.9248 20.9414 72.6904 21.5195Z" fill="white"/>
<path d="M81.8193 24.6719C81.8193 24.2188 81.8506 23.7852 81.9131 23.3711C81.9834 22.957 82.0693 22.5391 82.1709 22.1172C82.2803 21.6953 82.4014 21.2734 82.5342 20.8516L83.8467 16.8438C84.8857 13.5938 85.5381 11.0547 85.8037 9.22656C85.8896 8.57031 86.21 8.24219 86.7646 8.24219C87.0928 8.24219 87.3701 8.32812 87.5967 8.5C88.0107 8.83594 88.21 9.19531 88.1943 9.57812C88.1865 9.95312 88.1318 10.375 88.0303 10.8438C87.9365 11.3047 87.8115 11.8086 87.6553 12.3555C87.5068 12.9023 87.335 13.4766 87.1396 14.0781C86.6162 15.625 86.2256 16.7422 85.9678 17.4297L85.2998 19.1758C85.9795 18.1211 86.5342 17.3984 86.9639 17.0078C87.8232 16.25 88.7178 15.8711 89.6475 15.8711C91.0146 15.8711 91.9248 16.5859 92.3779 18.0156C92.5264 18.5078 92.6006 19.1211 92.6006 19.8555C92.6006 20.5898 92.4912 21.3203 92.2725 22.0469C92.0615 22.7656 91.7725 23.4375 91.4053 24.0625C91.0381 24.6797 90.6084 25.2383 90.1162 25.7383C89.6318 26.2383 89.1201 26.6641 88.5811 27.0156C87.4404 27.75 86.335 28.1172 85.2646 28.1172C84.1865 28.1172 83.3389 27.7891 82.7217 27.1328C82.1201 26.4766 81.8193 25.6562 81.8193 24.6719ZM85.1006 26.5938C85.835 26.5938 86.5811 26.2656 87.3389 25.6094C88.4951 24.6094 89.2725 23.1797 89.6709 21.3203C89.8037 20.7109 89.8701 20.0781 89.8701 19.4219C89.8701 18.7578 89.7959 18.293 89.6475 18.0273C89.499 17.7617 89.2686 17.6289 88.9561 17.6289C88.6514 17.6289 88.3311 17.7539 87.9951 18.0039C87.6592 18.2539 87.3076 18.5859 86.9404 19C86.5732 19.4062 86.21 19.8789 85.8506 20.418C85.4912 20.9492 85.167 21.5 84.8779 22.0703C84.2451 23.3281 83.9287 24.3984 83.9287 25.2812C83.9287 26.1562 84.3193 26.5938 85.1006 26.5938Z" fill="white"/>
<path d="M100.675 13.1289C100.503 13.3086 100.308 13.457 100.089 13.5742C99.8701 13.6836 99.6396 13.7539 99.3975 13.7852C99.1553 13.8086 98.9248 13.7695 98.7061 13.668C98.4951 13.5664 98.3115 13.4219 98.1553 13.2344C97.8193 12.8438 97.6514 12.4492 97.6514 12.0508C97.6514 11.6523 97.7139 11.3555 97.8389 11.1602C97.9717 10.957 98.1357 10.793 98.3311 10.668C98.7061 10.4258 99.0576 10.3047 99.3857 10.3047C99.7217 10.3047 99.9795 10.3281 100.159 10.375C100.347 10.4219 100.519 10.5 100.675 10.6094C101.058 10.8672 101.249 11.1836 101.249 11.5586C101.249 11.9258 101.194 12.2344 101.085 12.4844C100.983 12.7266 100.847 12.9414 100.675 13.1289ZM98.2725 25.8086C98.4756 25.8086 98.5771 25.9414 98.5771 26.207C98.5771 26.5586 98.417 26.9219 98.0967 27.2969C97.6279 27.8438 96.999 28.1172 96.21 28.1172C95.3037 28.1172 94.6826 27.75 94.3467 27.0156C94.2217 26.7578 94.1592 26.4453 94.1592 26.0781C94.1592 25.7109 94.2217 25.3047 94.3467 24.8594C94.4795 24.4062 94.6396 23.9336 94.8271 23.4414C95.0225 22.9414 95.2334 22.4375 95.46 21.9297L96.0811 20.4531C96.5342 19.3516 96.7607 18.625 96.7607 18.2734C96.7607 17.9219 96.7217 17.6914 96.6436 17.582C96.5732 17.4648 96.4951 17.375 96.4092 17.3125L96.1748 17.1484C96.0967 17.0938 96.0576 17 96.0576 16.8672C96.0576 16.7266 96.1084 16.5938 96.21 16.4688C96.3193 16.3438 96.46 16.2344 96.6318 16.1406C96.9834 15.9609 97.3936 15.8711 97.8623 15.8711C99.0107 15.8711 99.585 16.1719 99.585 16.7734C99.585 17.4766 99.4014 18.2812 99.0342 19.1875C98.667 20.0859 98.3545 20.8125 98.0967 21.3672L97.3936 22.9844C96.8779 24.1719 96.6201 25.0273 96.6201 25.5508C96.6201 25.8945 96.792 26.0664 97.1357 26.0664C97.4717 26.0664 97.7256 26.0234 97.8975 25.9375C98.0693 25.8516 98.1943 25.8086 98.2725 25.8086Z" fill="white"/>
<path d="M109.663 18.0859C109.421 18.0859 109.077 18.3203 108.632 18.7891C108.187 19.25 107.8 19.6719 107.472 20.0547L106.476 21.25L104.554 23.6992C104.101 24.5586 103.745 25.2734 103.487 25.8438L102.854 27.2031C102.69 27.5391 102.546 27.7773 102.421 27.918C102.304 28.0508 102.14 28.1172 101.929 28.1172C101.726 28.1172 101.526 28.0781 101.331 28C101.144 27.9297 100.979 27.8359 100.839 27.7188C100.542 27.4688 100.394 27.1953 100.394 26.8984C100.394 26.7812 100.479 26.5508 100.651 26.207L101.097 25.2578C101.237 24.9766 101.401 24.6172 101.589 24.1797L102.245 22.5742C103.167 20.2695 103.628 18.7812 103.628 18.1094C103.628 17.75 103.511 17.4844 103.276 17.3125L103.042 17.1484C102.964 17.0938 102.925 17 102.925 16.8672C102.925 16.7266 102.976 16.5938 103.077 16.4688C103.187 16.3438 103.327 16.2344 103.499 16.1406C103.851 15.9609 104.202 15.8711 104.554 15.8711C104.913 15.8711 105.19 15.9102 105.386 15.9883C105.581 16.0664 105.745 16.1719 105.878 16.3047C106.167 16.5781 106.312 16.8633 106.312 17.1602C106.312 17.457 106.272 17.7578 106.194 18.0625C106.124 18.3594 106.03 18.6641 105.913 18.9766C105.804 19.2812 105.687 19.582 105.562 19.8789C105.437 20.1758 105.323 20.4336 105.222 20.6523L104.987 21.1562C104.925 21.2812 104.909 21.3203 104.94 21.2734C105.808 20.0703 106.378 19.2969 106.651 18.9531L107.472 17.9688C108.073 17.2656 108.546 16.8008 108.89 16.5742C109.585 16.1055 110.132 15.8711 110.53 15.8711C110.929 15.8711 111.265 15.9219 111.538 16.0234C111.812 16.125 112.05 16.2695 112.253 16.457C112.683 16.8555 112.897 17.3633 112.897 17.9805C112.897 18.5977 112.757 19.2422 112.476 19.9141C112.194 20.5859 111.948 21.1328 111.737 21.5547C111.534 21.9688 111.339 22.3906 111.151 22.8203C110.565 24.125 110.272 25.0742 110.272 25.668C110.272 25.9336 110.483 26.0664 110.905 26.0664C111.233 26.0664 111.53 25.9961 111.796 25.8555C112.069 25.7148 112.245 25.6445 112.323 25.6445C112.487 25.6445 112.569 25.7266 112.569 25.8906C112.569 26.5859 112.214 27.168 111.503 27.6367C111.026 27.957 110.589 28.1172 110.19 28.1172C109.792 28.1172 109.46 28.0742 109.194 27.9883C108.937 27.9023 108.706 27.7656 108.503 27.5781C108.042 27.1641 107.812 26.5859 107.812 25.8438C107.812 24.9375 108.097 23.8047 108.667 22.4453C109.081 21.5156 109.374 20.8789 109.546 20.5352L109.944 19.7031C110.187 19.2031 110.308 18.8086 110.308 18.5195C110.308 18.2305 110.093 18.0859 109.663 18.0859Z" fill="white"/>
</g>
</g>
<defs>
<linearGradient id="paint0_linear_39_7" x1="45.5652" y1="2.67898" x2="13.401" y2="40.1283" gradientUnits="userSpaceOnUse">
<stop stop-color="#CEF3FF"/>
<stop offset="1" stop-color="#50B6E2"/>
</linearGradient>
<radialGradient id="paint1_radial_39_7" cx="0" cy="0" r="1" gradientUnits="userSpaceOnUse" gradientTransform="translate(33.4274 16.049) rotate(90) scale(10.5667 13.4586)">
<stop stop-color="#001433"/>
<stop offset="1" stop-color="#0D36B7"/>
</radialGradient>
<linearGradient id="paint2_linear_39_7" x1="25.3943" y1="19.2289" x2="42.7859" y2="20.8813" gradientUnits="userSpaceOnUse">
<stop stop-color="#BD345F"/>
<stop offset="1" stop-color="#DB6895"/>
</linearGradient>
<linearGradient id="paint3_linear_39_7" x1="18.2834" y1="3.33684" x2="18.2834" y2="34.7104" gradientUnits="userSpaceOnUse">
<stop stop-color="#00D0C4"/>
<stop offset="1" stop-color="#056DAE"/>
</linearGradient>
<clipPath id="clip0_39_7">
<rect width="45.5653" height="40" fill="white"/>
</clipPath>
</defs>
</svg>
